solid
facet normal -40000.0 0.0 0.0
outer loop
vertex 0.0 40.0 1000.0
vertex 0.0 80.0 1000.0
vertex 0.0 40.0 0.0
endloop
endfacet
facet normal -40000.0 -0.0 0.0
outer loop
vertex 0.0 40.0 0.0
vertex 0.0 80.0 1000.0
vertex 0.0 80.0 0.0
endloop
endfacet
facet normal 6089.63775635 30614.6755219 0.0
outer loop
vertex 0.0 80.0 1000.0
vertex 30.6146755219 73.9103622437 1000.0
vertex 0.0 80.0 0.0
endloop
endfacet
facet normal 6089.63775635 30614.6755219 0.0
outer loop
vertex 0.0 80.0 0.0
vertex 30.6146755219 73.9103622437 1000.0
vertex 30.6146755219 73.9103622437 0.0
endloop
endfacet
facet normal 17341.8197632 25953.8669586 -0.0
outer loop
vertex 30.6146755219 73.9103622437 0.0
vertex 30.6146755219 73.9103622437 1000.0
vertex 56.5685424805 56.5685424805 1000.0
endloop
endfacet
facet normal 25953.8669586 17341.8197632 -0.0
outer loop
vertex 56.5685424805 56.5685424805 0.0
vertex 56.5685424805 56.5685424805 1000.0
vertex 73.9103622437 30.6146755219 1000.0
endloop
endfacet
facet normal 30614.6755219 6089.63775635 -0.0
outer loop
vertex 73.9103622437 30.6146755219 0.0
vertex 73.9103622437 30.6146755219 1000.0
vertex 80.0 0.0 1000.0
endloop
endfacet
facet normal 30614.6755219 6089.63775635 -0.0
outer loop
vertex 80.0 0.0 0.0
vertex 73.9103622437 30.6146755219 0.0
vertex 80.0 0.0 1000.0
endloop
endfacet
facet normal 25953.8669586 17341.8197632 -0.0
outer loop
vertex 73.9103622437 30.6146755219 0.0
vertex 56.5685424805 56.5685424805 0.0
vertex 73.9103622437 30.6146755219 1000.0
endloop
endfacet
facet normal 17341.8197632 25953.8669586 -0.0
outer loop
vertex 56.5685424805 56.5685424805 0.0
vertex 30.6146755219 73.9103622437 0.0
vertex 56.5685424805 56.5685424805 1000.0
endloop
endfacet
facet normal -0.0 -40000.0 -0.0
outer loop
vertex 80.0 0.0 1000.0
vertex 40.0 0.0 1000.0
vertex 80.0 0.0 0.0
endloop
endfacet
facet normal 0.0 -40000.0 0.0
outer loop
vertex 80.0 0.0 0.0
vertex 40.0 0.0 1000.0
vertex 40.0 0.0 0.0
endloop
endfacet
facet normal -15307.3377609 -3044.81887817 -0.0
outer loop
vertex 40.0 0.0 1000.0
vertex 36.9551811218 15.3073377609 1000.0
vertex 40.0 0.0 0.0
endloop
endfacet
facet normal -15307.3377609 -3044.81887817 0.0
outer loop
vertex 40.0 0.0 0.0
vertex 36.9551811218 15.3073377609 1000.0
vertex 36.9551811218 15.3073377609 0.0
endloop
endfacet
facet normal -12976.9334793 -8670.90988159 0.0
outer loop
vertex 36.9551811218 15.3073377609 0.0
vertex 36.9551811218 15.3073377609 1000.0
vertex 28.2842712402 28.2842712402 1000.0
endloop
endfacet
facet normal -8670.90988159 -12976.9334793 0.0
outer loop
vertex 28.2842712402 28.2842712402 0.0
vertex 28.2842712402 28.2842712402 1000.0
vertex 15.3073377609 36.9551811218 1000.0
endloop
endfacet
facet normal -3044.81887817 -15307.3377609 0.0
outer loop
vertex 15.3073377609 36.9551811218 0.0
vertex 15.3073377609 36.9551811218 1000.0
vertex 0.0 40.0 1000.0
endloop
endfacet
facet normal -3044.81887817 -15307.3377609 0.0
outer loop
vertex 0.0 40.0 0.0
vertex 15.3073377609 36.9551811218 0.0
vertex 0.0 40.0 1000.0
endloop
endfacet
facet normal -8670.90988159 -12976.9334793 0.0
outer loop
vertex 15.3073377609 36.9551811218 0.0
vertex 28.2842712402 28.2842712402 0.0
vertex 15.3073377609 36.9551811218 1000.0
endloop
endfacet
facet normal -12976.9334793 -8670.90988159 0.0
outer loop
vertex 28.2842712402 28.2842712402 0.0
vertex 36.9551811218 15.3073377609 0.0
vertex 28.2842712402 28.2842712402 1000.0
endloop
endfacet
facet normal 0.0 -0.0 1224.58702087
outer loop
vertex 0.0 80.0 1000.0
vertex 0.0 40.0 1000.0
vertex 30.6146755219 73.9103622437 1000.0
endloop
endfacet
facet normal 0.0 -0.0 612.293510437
outer loop
vertex 30.6146755219 73.9103622437 1000.0
vertex 0.0 40.0 1000.0
vertex 15.3073377609 36.9551811218 1000.0
endloop
endfacet
facet normal 0.0 -0.0 612.293473386
outer loop
vertex 56.5685424805 56.5685424805 1000.0
vertex 15.3073377609 36.9551811218 1000.0
vertex 28.2842712402 28.2842712402 1000.0
endloop
endfacet
facet normal 0.0 -0.0 612.293473386
outer loop
vertex 73.9103622437 30.6146755219 1000.0
vertex 28.2842712402 28.2842712402 1000.0
vertex 36.9551811218 15.3073377609 1000.0
endloop
endfacet
facet normal 0.0 -0.0 612.293510437
outer loop
vertex 80.0 0.0 1000.0
vertex 36.9551811218 15.3073377609 1000.0
vertex 40.0 0.0 1000.0
endloop
endfacet
facet normal 0.0 -0.0 1224.58702087
outer loop
vertex 80.0 0.0 1000.0
vertex 73.9103622437 30.6146755219 1000.0
vertex 36.9551811218 15.3073377609 1000.0
endloop
endfacet
facet normal 0.0 -0.0 1224.58694677
outer loop
vertex 73.9103622437 30.6146755219 1000.0
vertex 56.5685424805 56.5685424805 1000.0
vertex 28.2842712402 28.2842712402 1000.0
endloop
endfacet
facet normal 0.0 -0.0 1224.58694677
outer loop
vertex 56.5685424805 56.5685424805 1000.0
vertex 30.6146755219 73.9103622437 1000.0
vertex 15.3073377609 36.9551811218 1000.0
endloop
endfacet
facet normal 0.0 0.0 -612.293510437
outer loop
vertex 40.0 0.0 0.0
vertex 36.9551811218 15.3073377609 0.0
vertex 80.0 0.0 0.0
endloop
endfacet
facet normal 0.0 -0.0 -1224.58702087
outer loop
vertex 80.0 0.0 0.0
vertex 36.9551811218 15.3073377609 0.0
vertex 73.9103622437 30.6146755219 0.0
endloop
endfacet
facet normal 0.0 -0.0 -612.293473386
outer loop
vertex 73.9103622437 30.6146755219 0.0
vertex 36.9551811218 15.3073377609 0.0
vertex 28.2842712402 28.2842712402 0.0
endloop
endfacet
facet normal 0.0 -0.0 -612.293473386
outer loop
vertex 56.5685424805 56.5685424805 0.0
vertex 28.2842712402 28.2842712402 0.0
vertex 15.3073377609 36.9551811218 0.0
endloop
endfacet
facet normal 0.0 -0.0 -612.293510437
outer loop
vertex 30.6146755219 73.9103622437 0.0
vertex 15.3073377609 36.9551811218 0.0
vertex 0.0 40.0 0.0
endloop
endfacet
facet normal 0.0 -0.0 -1224.58702087
outer loop
vertex 0.0 80.0 0.0
vertex 30.6146755219 73.9103622437 0.0
vertex 0.0 40.0 0.0
endloop
endfacet
facet normal 0.0 -0.0 -1224.58694677
outer loop
vertex 30.6146755219 73.9103622437 0.0
vertex 56.5685424805 56.5685424805 0.0
vertex 15.3073377609 36.9551811218 0.0
endloop
endfacet
facet normal 0.0 -0.0 -1224.58694677
outer loop
vertex 56.5685424805 56.5685424805 0.0
vertex 73.9103622437 30.6146755219 0.0
vertex 28.2842712402 28.2842712402 0.0
endloop
endfacet
endsolid
